<svg width="25" height="24" viewBox="0 0 25 24" fill="none" xmlns="http://www.w3.org/2000/svg">
<path d="M7.5 14V2" stroke="#222222" stroke-width="1.5" stroke-linecap="round" stroke-linejoin="round"/>
<path d="M15.5 18.12L14.5 14H20.33C20.6405 14 20.9467 13.9277 21.2244 13.7889C21.5021 13.65 21.7437 13.4484 21.93 13.2C22.1163 12.9516 22.2422 12.6633 22.2977 12.3578C22.3533 12.0523 22.3369 11.7381 22.25 11.44L19.92 3.44C19.7988 3.02457 19.5462 2.65964 19.2 2.4C18.8538 2.14036 18.4327 2 18 2H4.5C3.96957 2 3.46086 2.21071 3.08579 2.58579C2.71071 2.96086 2.5 3.46957 2.5 4V12C2.5 12.5304 2.71071 13.0391 3.08579 13.4142C3.46086 13.7893 3.96957 14 4.5 14H7.26C7.63208 14.0002 7.99674 14.1042 8.31296 14.3003C8.62917 14.4964 8.88442 14.7768 9.05 15.11L12.5 22C12.9716 21.9942 13.4357 21.8818 13.8578 21.6714C14.2799 21.461 14.6489 21.1579 14.9374 20.7848C15.2259 20.4117 15.4263 19.9782 15.5237 19.5168C15.6212 19.0554 15.613 18.5779 15.5 18.12Z" stroke="#222222" stroke-width="1.5" stroke-linecap="round" stroke-linejoin="round"/>
</svg>
