<svg width="29" height="29" viewBox="0 0 29 29" fill="none" xmlns="http://www.w3.org/2000/svg">
<rect x="1" y="1" width="26.8" height="26.8" rx="6.2" stroke="#848484" stroke-width="2"/>
<path d="M14.7815 19.4688C8.80247 19.4688 5.3921 15.3631 5.25 8.53125H8.245C8.34338 13.5456 10.5514 15.6696 12.3003 16.1076V8.53125H15.1204V12.8559C16.8474 12.6698 18.6619 10.699 19.274 8.53125H22.0942C21.8635 9.65553 21.4037 10.72 20.7435 11.6582C20.0834 12.5964 19.2371 13.388 18.2575 13.9836C19.3509 14.5278 20.3167 15.298 21.0911 16.2436C21.8655 17.1891 22.4309 18.2883 22.75 19.4688H19.6457C19.3592 18.4434 18.777 17.5256 17.972 16.8303C17.167 16.135 16.175 15.6932 15.1204 15.5602V19.4688H14.7815Z" fill="#848484"/>
</svg>
