<svg width="28" height="28" viewBox="0 0 28 28" fill="none" xmlns="http://www.w3.org/2000/svg">
<g clip-path="url(#clip0_170_1799)">
<path fill-rule="evenodd" clip-rule="evenodd" d="M23.3181 3.81478C20.8623 1.3561 17.5963 0.00143555 14.1168 0C6.9471 0 1.11197 5.83496 1.1091 13.0066C1.10812 15.2991 1.70699 17.537 2.84533 19.5096L1 26.25L7.89559 24.4411C9.79559 25.4776 11.9347 26.0237 14.1115 26.0244H14.117C21.2859 26.0244 27.1217 20.189 27.1244 13.017C27.1258 9.54126 25.7741 6.27334 23.3181 3.81478ZM14.1168 23.8276H14.1123C12.1724 23.8268 10.2698 23.3055 8.60963 22.3206L8.21506 22.0862L4.12309 23.1597L5.21526 19.1701L4.95809 18.7611C3.87585 17.0397 3.30434 15.0501 3.30532 13.0074C3.30758 7.04648 8.15768 2.19688 14.1211 2.19688C17.0089 2.19782 19.7235 3.32382 21.7646 5.36738C23.8057 7.41095 24.9292 10.1273 24.9283 13.0162C24.9257 18.9775 20.0759 23.8276 14.1168 23.8276ZM20.0471 15.7304C19.7221 15.5676 18.1241 14.7816 17.8261 14.673C17.5284 14.5645 17.3115 14.5105 17.0951 14.8358C16.8783 15.161 16.2555 15.8932 16.0658 16.1099C15.8761 16.3269 15.6867 16.3541 15.3617 16.1914C15.0366 16.0287 13.9894 15.6854 12.7479 14.5781C11.7818 13.7163 11.1295 12.652 10.9398 12.3268C10.7505 12.0012 10.9382 11.8423 11.0824 11.6634C11.4342 11.2265 11.7866 10.7685 11.8949 10.5517C12.0033 10.3347 11.949 10.1449 11.8677 9.9823C11.7866 9.81967 11.1366 8.2199 10.8658 7.56894C10.6018 6.93545 10.334 7.02097 10.1344 7.01108C9.94505 7.00161 9.72829 6.99968 9.51152 6.99968C9.29487 6.99968 8.94271 7.08089 8.64474 7.40648C8.34688 7.73189 7.50737 8.51808 7.50737 10.1179C7.50737 11.7176 8.67197 13.2631 8.83443 13.48C8.99685 13.697 11.1263 16.9798 14.3866 18.3875C15.162 18.7226 15.7673 18.9224 16.2395 19.0722C17.0182 19.3196 17.7265 19.2847 18.2866 19.201C18.9111 19.1076 20.2094 18.4147 20.4804 17.6555C20.7512 16.8963 20.7512 16.2457 20.6698 16.1099C20.5888 15.9744 20.372 15.8932 20.0471 15.7304Z" fill="#848484"/>
</g>
<defs>
<clipPath id="clip0_170_1799">
<rect width="28" height="28" fill="white"/>
</clipPath>
</defs>
</svg>
