<svg width="24" height="24" viewBox="0 0 24 24" fill="none" xmlns="http://www.w3.org/2000/svg">
<path d="M3.85019 9.6201C3.70423 8.96262 3.72665 8.27894 3.91535 7.63244C4.10405 6.98593 4.45294 6.39754 4.92966 5.92182C5.40638 5.4461 5.9955 5.09844 6.6424 4.91109C7.2893 4.72374 7.97303 4.70276 8.63019 4.8501C8.9919 4.2844 9.4902 3.81886 10.0791 3.49638C10.6681 3.17391 11.3287 3.00488 12.0002 3.00488C12.6716 3.00488 13.3323 3.17391 13.9212 3.49638C14.5102 3.81886 15.0085 4.2844 15.3702 4.8501C16.0284 4.70212 16.7133 4.72301 17.3612 4.91081C18.0091 5.09862 18.599 5.44724 19.076 5.92425C19.5531 6.40126 19.9017 6.99117 20.0895 7.6391C20.2773 8.28703 20.2982 8.97193 20.1502 9.6301C20.7159 9.99181 21.1814 10.4901 21.5039 11.079C21.8264 11.668 21.9954 12.3286 21.9954 13.0001C21.9954 13.6715 21.8264 14.3322 21.5039 14.9211C21.1814 15.5101 20.7159 16.0084 20.1502 16.3701C20.2975 17.0273 20.2765 17.711 20.0892 18.3579C19.9018 19.0048 19.5542 19.5939 19.0785 20.0706C18.6027 20.5473 18.0144 20.8962 17.3679 21.0849C16.7213 21.2736 16.0377 21.2961 15.3802 21.1501C15.019 21.718 14.5203 22.1855 13.9303 22.5094C13.3404 22.8333 12.6782 23.0032 12.0052 23.0032C11.3322 23.0032 10.67 22.8333 10.0801 22.5094C9.49011 22.1855 8.99143 21.718 8.63019 21.1501C7.97303 21.2974 7.2893 21.2765 6.6424 21.0891C5.9955 20.9018 5.40638 20.5541 4.92966 20.0784C4.45294 19.6027 4.10405 19.0143 3.91535 18.3678C3.72665 17.7213 3.70423 17.0376 3.85019 16.3801C3.28015 16.0193 2.81061 15.5203 2.48524 14.9293C2.15988 14.3384 1.98926 13.6747 1.98926 13.0001C1.98926 12.3255 2.15988 11.6618 2.48524 11.0709C2.81061 10.4799 3.28015 9.98085 3.85019 9.6201Z" fill="#E7CDFF"/>
</svg>
